<svg width="30" height="67" viewBox="0 0 30 67" fill="none" xmlns="http://www.w3.org/2000/svg">
<path d="M21.4201 0.569946H19.4501V52.543C18.5984 51.8259 17.4859 51.2857 16.14 50.9899C11.1801 49.8999 4.94002 52.55 2.19002 56.91C-0.559981 61.26 1.23006 65.67 6.19002 66.7599C11.15 67.8499 17.39 65.1999 20.14 60.8399C21.0943 59.3305 21.5018 57.8138 21.4201 56.4312V0.569946Z" fill="black"/>
<path d="M27.12 61.12C28.36 61.12 29.36 60.12 29.36 58.88C29.36 57.64 28.36 56.64 27.12 56.64C25.88 56.64 24.88 57.64 24.88 58.88C24.88 60.12 25.88 61.12 27.12 61.12Z" fill="black"/>
</svg>
