<svg width="37" height="67" viewBox="0 0 37 67" fill="none" xmlns="http://www.w3.org/2000/svg">
<path d="M2.27999 56.87C-0.470007 61.22 1.31999 65.63 6.27999 66.72C11.24 67.81 17.4799 65.16 20.2299 60.8C22.9799 56.45 21.1899 52.04 16.2299 50.95C11.2699 49.86 5.02999 52.51 2.27999 56.87Z" fill="black"/>
<path d="M21.51 0.529968H19.54V56.87H21.51V0.529968Z" fill="black"/>
<path d="M21.51 0.529968C22.3 3.44997 22.99 6.13998 25.71 9.41998C28.1 12.31 37.39 21.69 36.46 29.15C35.95 33.18 34.37 37 34.37 37C36.95 26.76 33.5399 22.48 30.6899 19.45C26.1099 15.04 21.46 13.19 21.46 13.19L21.52 0.539978L21.51 0.529968Z" fill="black"/>
</svg>
