<svg width="17" height="33" viewBox="0 0 17 33" fill="none" xmlns="http://www.w3.org/2000/svg">
<path d="M0 5.35995C0 2.60995 2.08003 0.389984 4.66003 0.389984C7.24003 0.389984 9.31995 2.61995 9.31995 5.35995C9.31995 6.49995 8.93997 7.53997 8.33997 8.37997C9.08997 8.24997 9.78999 8 10.36 7.53C12.38 5.87 13.72 3.30994 14.29 2.21994C14.44 1.92994 14.55 1.71996 14.62 1.61996L14.64 1.53995L16.52 2.22995L8.28003 32.17L6.40002 31.4799L12.84 8.07999C12.42 8.53999 11.98 8.98998 11.49 9.38998C10.23 10.42 8.66003 10.78 7.16003 10.78C5.38003 10.78 4.18994 10.54 3.18994 10.09V10.07C1.33994 9.40998 0 7.56996 0 5.36996V5.35995Z" fill="black"/>
</svg>
