<svg width="22" height="67" viewBox="0 0 22 67" fill="none" xmlns="http://www.w3.org/2000/svg">
<path d="M2.06002 56.87C-0.689978 61.22 1.10002 65.63 6.06002 66.72C11.02 67.81 17.26 65.16 20.01 60.8C22.76 56.45 20.97 52.04 16.01 50.95C11.05 49.86 4.81002 52.51 2.06002 56.87ZM8.45004 56.96C11.76 53.48 15.59 51.51 17.02 52.54C18.45 53.58 16.93 57.23 13.62 60.71C10.31 64.19 6.48001 66.16 5.05001 65.13C3.62001 64.09 5.14004 60.44 8.45004 56.96Z" fill="black"/>
<path d="M21.3 0.529968H19.33V56.87H21.3V0.529968Z" fill="black"/>
</svg>
