<svg width="16" height="45" viewBox="0 0 16 45" fill="none" xmlns="http://www.w3.org/2000/svg">
<path d="M15.59 32.95C15.38 32.7 11.3 27.8799 9.53999 25.7999C8.97999 25.1399 8.69 24.3 8.74 23.44C8.81 22.25 9.07001 20.47 9.93001 18.7C11.76 14.94 13.7 14.73 14.09 12.76C14.38 11.28 8.26001 3.85994 5.18001 0.229942C4.98001 -5.77718e-05 4.62002 0.229972 4.76002 0.509972C5.83002 2.63997 7.10001 5.93996 6.68001 8.93996C6.11001 13.04 2.11001 16.57 1.75001 17.12C1.39001 17.67 1.77001 18.1999 2.12001 18.6099C3.72001 20.4499 7.95999 25.47 11.23 29.33C11.3 29.41 11.2 29.5099 11.11 29.4699C7.9 27.8799 4.41004 28 2.28004 30.13C-0.619958 33.03 -0.609994 39.09 3.68001 42.32C5.92001 44 6.98002 44.4799 8.38002 44.9199C8.76002 45.0399 9.16 44.55 8.86 44.28C5.58 41.42 3.35 35.58 8.36 33.45C9.97 32.76 11.89 32.79 13.88 33.51C14.92 33.89 15.48 34.0499 15.77 33.7899C15.98 33.5399 15.86 33.27 15.58 32.96L15.59 32.95Z" fill="black"/>
</svg>
