<svg width="22" height="49" viewBox="0 0 22 49" fill="none" xmlns="http://www.w3.org/2000/svg">
<path d="M7.94995 27.01C9.45995 27.01 11.02 26.66 12.28 25.62C12.74 25.24 13.23 24.73 13.63 24.3L15.33 18.02C15.27 18.13 15.1599 18.27 15.0699 18.45C14.4999 19.54 13.16 22.1 11.14 23.76C10.57 24.23 9.87 24.48 9.12 24.61C9.72999 23.77 10.1 22.73 10.1 21.59C10.1 18.84 8.01994 16.62 5.43994 16.62C2.85994 16.62 0.780029 18.85 0.780029 21.59C0.780029 23.79 2.11997 25.6299 3.96997 26.2899V26.31C4.96997 26.76 6.15994 27 7.93994 27L7.94995 27.01Z" fill="black"/>
<path d="M8.32996 10.08C9.32996 10.53 10.52 10.77 12.3 10.77C13.81 10.77 15.37 10.42 16.63 9.37997C17.1 8.98997 17.59 8.53 17.99 8.09L19.7 1.70999C19.63 1.82999 19.54 1.98994 19.42 2.21994C18.85 3.30994 17.51 5.87 15.49 7.53C14.92 8 14.22 8.24997 13.47 8.37997C14.08 7.53997 14.45 6.49995 14.45 5.35995C14.45 2.60995 12.37 0.389984 9.79004 0.389984C7.21004 0.389984 5.13 2.61995 5.13 5.35995C5.13 7.55995 6.46995 9.39997 8.31995 10.06V10.08H8.32996Z" fill="black"/>
<path d="M8.81995 48.5999L7.05005 48.11L19.6899 1.70999L21.48 2.19998L8.81995 48.5999Z" fill="black"/>
</svg>
