<svg width="38" height="67" viewBox="0 0 38 67" fill="none" xmlns="http://www.w3.org/2000/svg">
<path d="M1.96993 56.87C-0.780065 61.22 1.00993 65.63 5.96993 66.72C10.9299 67.81 17.17 65.16 19.92 60.8C22.67 56.45 20.88 52.04 15.92 50.95C10.96 49.86 4.71993 52.51 1.96993 56.87Z" fill="black"/>
<path d="M21.21 0.529968H19.24V56.87H21.21V0.529968Z" fill="black"/>
<path d="M21.2 0.529968C22.05 3.44997 22.78 6.13998 25.71 9.41998C28.28 12.31 38.24 21.69 37.24 29.15C36.7 33.18 35 37 35 37C37.76 26.76 34.1 22.48 31.05 19.45C26.13 15.04 21.15 13.19 21.15 13.19L21.21 0.539978L21.2 0.529968Z" fill="black"/>
<path d="M21.2 13.0599C22.05 15.9799 22.78 18.67 25.71 21.95C28.12 24.67 38.4 33.0699 37.24 41.6799C36.7 45.7099 35 49.5299 35 49.5299C37.76 39.2899 34.1 35.01 31.05 31.9799C26.13 27.57 21.15 25.7199 21.15 25.7199L21.21 13.0699L21.2 13.0599Z" fill="black"/>
</svg>
