<svg width="37" height="67" viewBox="0 0 37 67" fill="none" xmlns="http://www.w3.org/2000/svg">
<path d="M1.50997 56.87C-1.24003 61.22 0.549973 65.63 5.50997 66.72C10.47 67.81 16.7099 65.16 19.4599 60.8C22.2099 56.45 20.4199 52.04 15.4599 50.95C10.4999 49.86 4.25997 52.51 1.50997 56.87Z" fill="black"/>
<path d="M20.75 0.529968H18.78V56.87H20.75V0.529968Z" fill="black"/>
<path d="M20.74 0.529968C21.59 3.44997 22.32 6.13998 25.25 9.41998C27.66 12.14 37.94 20.54 36.78 29.15C36.24 33.18 34.54 37 34.54 37C37.3 26.76 33.64 22.48 30.59 19.45C25.67 15.04 20.6899 13.19 20.6899 13.19L20.75 0.539978L20.74 0.529968Z" fill="black"/>
<path d="M20.74 13.09C21.59 16.01 22.32 18.7 25.25 21.98C27.66 24.7 37.94 33.1 36.78 41.71C36.24 45.74 34.54 49.56 34.54 49.56C37.3 39.32 33.64 35.04 30.59 32.01C25.67 27.6 20.6899 25.75 20.6899 25.75L20.75 13.1L20.74 13.09Z" fill="black"/>
<path d="M20.74 25C21.59 27.92 22.32 30.11 25.25 33.39C27.82 36.28 37.78 46.16 36.78 53.61C36.24 57.64 34.54 61.46 34.54 61.46C37.3 51.22 33.64 46.94 30.59 43.91C25.67 39.5 20.6899 37.65 20.6899 37.65L20.75 25H20.74Z" fill="black"/>
</svg>
