<svg width="17" height="18" viewBox="0 0 17 18" fill="none" xmlns="http://www.w3.org/2000/svg">
<g id="Group 1021">
<path id="Vector" d="M3.42486 18C2.51687 17.9989 1.64638 17.6377 1.00434 16.9957C0.362296 16.3536 0.0011036 15.4831 0 14.5751V3.42486C0.0011036 2.51687 0.362296 1.64638 1.00434 1.00434C1.64638 0.362296 2.51687 0.0011036 3.42486 0C4.33284 0.0011036 5.20331 0.362296 5.84536 1.00434C6.4874 1.64638 6.84859 2.51687 6.8497 3.42486V14.5804C6.84722 15.4874 6.48542 16.3566 5.84352 16.9975C5.20163 17.6384 4.33194 17.9989 3.42486 18ZM3.42486 1.87352C3.01433 1.8738 2.62068 2.03699 2.3304 2.32728C2.04011 2.61757 1.8769 3.0112 1.87663 3.42172V14.5772C1.8769 14.9878 2.04011 15.3814 2.3304 15.6717C2.62068 15.962 3.01433 16.1252 3.42486 16.1255C3.83538 16.1252 4.22901 15.962 4.5193 15.6717C4.80959 15.3814 4.97279 14.9878 4.97307 14.5772V3.42486C4.97334 3.22132 4.9335 3.01973 4.85583 2.83159C4.77816 2.64345 4.66419 2.47244 4.52041 2.32837C4.37663 2.1843 4.20587 2.06998 4.01789 1.99193C3.82991 1.91388 3.62839 1.87366 3.42486 1.87352Z" fill="#65AF7C"/>
<path id="Vector_2" d="M13.2469 18C12.3389 17.9989 11.4684 17.6377 10.8263 16.9957C10.1843 16.3536 9.82313 15.4831 9.82202 14.5751V3.42486C9.82313 2.51687 10.1843 1.64638 10.8263 1.00434C11.4684 0.362296 12.3389 0.0011036 13.2469 0C14.155 0.000827697 15.0258 0.36191 15.6681 1.00398C16.3103 1.64606 16.6716 2.51669 16.6727 3.42486V14.5804C16.6703 15.4876 16.3083 16.3569 15.6662 16.9979C15.0241 17.6388 14.1541 17.9992 13.2469 18ZM13.2469 1.87352C12.8364 1.87407 12.4429 2.03736 12.1527 2.32758C11.8625 2.61781 11.6992 3.01128 11.6986 3.42172V14.5772C11.6992 14.9877 11.8625 15.3811 12.1527 15.6714C12.4429 15.9616 12.8364 16.1249 13.2469 16.1255C13.6575 16.1252 14.0512 15.962 14.3417 15.6718C14.6321 15.3815 14.7956 14.9879 14.7961 14.5772V3.42486C14.7963 3.22127 14.7563 3.01965 14.6785 2.83151C14.6007 2.64337 14.4866 2.47238 14.3428 2.32832C14.1989 2.18427 14.0281 2.06994 13.8401 1.99191C13.652 1.91387 13.4505 1.87366 13.2469 1.87352Z" fill="#65AF7C"/>
</g>
</svg>
