<svg width="63" height="63" viewBox="0 0 63 63" fill="none" xmlns="http://www.w3.org/2000/svg">
<g filter="url(#filter0_dii_463_77)">
<path d="M60.8033 2.16333L58.8367 0.196667C58.4433 0 58.05 0 57.6567 0C57.2633 0.196667 57.0667 0.59 57.0667 0.983333C57.0667 1.37667 56.4767 1.57333 55.2967 1.77C53.7233 2.16333 51.3633 2.75333 51.1667 5.31L49.5933 6.88333L48.8067 6.09667C48.4133 5.70333 47.8233 5.70333 47.43 6.09667C47.0367 6.49 47.0367 7.08 47.43 7.47333L48.2167 8.26L47.6267 8.85L46.84 8.06333C46.4467 7.67 45.8567 7.67 45.4633 8.06333C45.07 8.45667 45.07 9.04667 45.4633 9.44L46.0533 10.03L36.6133 19.0767C34.6467 18.0933 32.68 17.5033 30.5167 17.5033C26.3867 17.5033 22.4533 19.47 20.0933 23.01C19.7 23.6 19.8967 24.19 20.29 24.5833C21.0767 25.1733 21.6667 26.3533 21.6667 27.5333C21.6667 27.9267 21.6667 28.5167 21.47 28.91C21.0767 30.09 19.8967 31.0733 18.7167 31.27C18.3233 31.4667 17.93 31.4667 17.7333 31.4667C16.16 31.4667 14.5867 30.4833 13.9967 28.91C13.8 28.32 13.21 28.1233 12.8167 28.32C6.32667 30.4833 2 36.3833 2 43.2667C2 46.8067 3.18 50.15 5.14667 52.7067L2.19667 57.4267C2 57.82 2 58.41 2.19667 58.8033C2.39333 59 2.78667 59 2.98333 59C3.18 59 3.37667 59 3.57333 58.8033L8.29333 55.8533C10.85 57.82 14.1933 59 17.7333 59C24.6167 59 30.5167 54.6733 32.68 48.1833C32.8767 47.5933 32.68 47.2 32.09 47.0033C30.5167 46.4133 29.5333 45.0367 29.5333 43.2667C29.5333 43.07 29.5333 42.6767 29.73 42.2833C30.1233 41.1033 30.91 39.9233 32.09 39.53C33.86 38.94 35.4333 39.53 36.4167 40.71C36.81 41.1033 37.4 41.1033 37.7933 40.9067C41.1367 38.5467 43.3 34.6133 43.3 30.4833C43.3 28.32 42.71 26.1567 41.7267 24.3867L50.7733 14.9467L51.3633 15.5367C51.56 15.7333 51.9533 15.7333 52.15 15.7333C52.3467 15.7333 52.74 15.7333 52.9367 15.5367C53.33 15.1433 53.33 14.5533 52.9367 14.16L52.15 13.3733L52.74 12.7833L53.5267 13.57C53.5267 13.7667 53.92 13.7667 54.1167 13.7667C54.3133 13.7667 54.7067 13.7667 54.9033 13.57C55.2967 13.1767 55.2967 12.5867 54.9033 12.1933L54.1167 11.4067L55.4933 9.83333C58.05 9.63667 58.8367 7.27667 59.23 5.70333C59.4267 4.72 59.6233 3.93333 60.0167 3.93333C60.41 3.93333 60.8033 3.73667 61 3.34333C61 2.95 61 2.55667 60.8033 2.16333ZM20.6833 39.3333H17.7333C17.1433 39.3333 16.75 38.94 16.75 38.35C16.75 37.76 17.1433 37.3667 17.7333 37.3667H20.29L25.01 32.6467C25.4033 32.2533 25.9933 32.2533 26.3867 32.6467C26.78 33.04 26.78 33.63 26.3867 34.0233L21.47 38.94C21.2733 39.1367 20.88 39.3333 20.6833 39.3333ZM28.3533 36.1867L23.6333 40.71V43.2667C23.6333 43.8567 23.24 44.25 22.65 44.25C22.06 44.25 21.6667 43.8567 21.6667 43.2667V40.3167C21.6667 40.12 21.8633 39.7267 21.8633 39.53L26.78 34.6133C27.1733 34.22 27.7633 34.22 28.1567 34.6133C28.55 35.0067 28.55 35.7933 28.3533 36.1867Z" fill="url(#paint0_linear_463_77)"/>
</g>
<defs>
<filter id="filter0_dii_463_77" x="0.817734" y="-0.591133" width="61.3645" height="63.1379" filterUnits="userSpaceOnUse" color-interpolation-filters="sRGB">
<feFlood flood-opacity="0" result="BackgroundImageFix"/>
<feColorMatrix in="SourceAlpha" type="matrix" values="0 0 0 0 0 0 0 0 0 0 0 0 0 0 0 0 0 0 127 0" result="hardAlpha"/>
<feOffset dy="2.36453"/>
<feGaussianBlur stdDeviation="0.591133"/>
<feComposite in2="hardAlpha" operator="out"/>
<feColorMatrix type="matrix" values="0 0 0 0 0 0 0 0 0 0 0 0 0 0 0 0 0 0 0.25 0"/>
<feBlend mode="normal" in2="BackgroundImageFix" result="effect1_dropShadow_463_77"/>
<feBlend mode="normal" in="SourceGraphic" in2="effect1_dropShadow_463_77" result="shape"/>
<feColorMatrix in="SourceAlpha" type="matrix" values="0 0 0 0 0 0 0 0 0 0 0 0 0 0 0 0 0 0 127 0" result="hardAlpha"/>
<feOffset dy="1.18227"/>
<feGaussianBlur stdDeviation="0.295566"/>
<feComposite in2="hardAlpha" operator="arithmetic" k2="-1" k3="1"/>
<feColorMatrix type="matrix" values="0 0 0 0 1 0 0 0 0 1 0 0 0 0 1 0 0 0 0.86 0"/>
<feBlend mode="normal" in2="shape" result="effect2_innerShadow_463_77"/>
<feColorMatrix in="SourceAlpha" type="matrix" values="0 0 0 0 0 0 0 0 0 0 0 0 0 0 0 0 0 0 127 0" result="hardAlpha"/>
<feOffset dy="-1.18227"/>
<feGaussianBlur stdDeviation="0.295566"/>
<feComposite in2="hardAlpha" operator="arithmetic" k2="-1" k3="1"/>
<feColorMatrix type="matrix" values="0 0 0 0 0 0 0 0 0 0 0 0 0 0 0 0 0 0 0.25 0"/>
<feBlend mode="normal" in2="effect2_innerShadow_463_77" result="effect3_innerShadow_463_77"/>
</filter>
<linearGradient id="paint0_linear_463_77" x1="31.5" y1="69.405" x2="31.5" y2="-4.81307e-06" gradientUnits="userSpaceOnUse">
<stop stop-color="white"/>
<stop offset="1" stop-color="#999999"/>
</linearGradient>
</defs>
</svg>
