<svg width="63" height="63" viewBox="0 0 63 63" fill="none" xmlns="http://www.w3.org/2000/svg">
<g filter="url(#filter0_dii_463_80)">
<path d="M59.0122 8.48558L60.3387 7.15902C61.2184 6.27929 61.2184 4.84748 60.3387 3.96775L57.0342 0.663277C56.6112 0.240289 56.0373 0 55.4376 0C54.8379 0 54.264 0.238303 53.841 0.661291L52.5124 1.98785L51.2157 0.691079C50.6775 0.152911 49.8037 0.152911 49.2656 0.691079C48.7274 1.22925 48.7274 2.10104 49.2656 2.63921L50.5643 3.93597L49.9149 4.58734L48.6182 3.28858C48.08 2.75042 47.2062 2.75042 46.67 3.28858C46.1319 3.82675 46.1319 4.70053 46.67 5.2387L47.9668 6.53546L47.3154 7.18683L46.0187 5.89006C45.4805 5.35189 44.6087 5.35189 44.0705 5.89006C43.5324 6.42823 43.5324 7.30002 44.0705 7.83819L45.3673 9.13495L35.5592 18.9451C30.8547 16.4469 25.4134 16.7507 22.0315 20.1307C21.4059 20.7562 20.8856 21.4552 20.4666 22.2079C19.5571 23.8522 17.8354 24.8888 15.9528 24.9225C12.2233 24.992 8.69842 26.3186 6.05127 28.9638C-0.0413489 35.0564 0.838387 45.8118 8.0133 52.9867C15.1882 60.1616 25.9456 61.0413 32.0382 54.9487C34.6834 52.3036 36.0119 48.7787 36.0794 45.0472C36.1152 43.1686 37.1538 41.4409 38.7941 40.5334C39.5468 40.1163 40.2438 39.5961 40.8733 38.9705C44.2513 35.5906 44.5551 30.1453 42.0569 25.4428L51.867 15.6347L53.1638 16.9334C53.4359 17.2015 53.7854 17.3366 54.1389 17.3366C54.4923 17.3366 54.8419 17.2015 55.1139 16.9334C55.6521 16.3953 55.6521 15.5215 55.1139 14.9833L53.8152 13.6865L54.4626 13.0372L55.7613 14.3359C56.0334 14.604 56.3849 14.739 56.7364 14.739C57.0898 14.739 57.4394 14.604 57.7114 14.3359C58.2496 13.7978 58.2496 12.924 57.7114 12.3858L56.4127 11.089L57.062 10.4377L58.3628 11.7384C58.6309 12.0065 58.9844 12.1415 59.3358 12.1415C59.6873 12.1415 60.0388 12.0065 60.3089 11.7384C60.8471 11.2002 60.8471 10.3265 60.3089 9.7883L59.0122 8.48558ZM33.3489 36.7463C30.8368 39.2585 26.7658 39.2585 24.2537 36.7463C21.7415 34.2342 21.7415 30.1632 24.2537 27.6511C26.7658 25.139 30.8388 25.139 33.3489 27.6511C35.861 30.1632 35.863 34.2342 33.3489 36.7463Z" fill="url(#paint0_linear_463_80)"/>
</g>
<defs>
<filter id="filter0_dii_463_80" x="0.817734" y="-0.591133" width="61.3631" height="63.1379" filterUnits="userSpaceOnUse" color-interpolation-filters="sRGB">
<feFlood flood-opacity="0" result="BackgroundImageFix"/>
<feColorMatrix in="SourceAlpha" type="matrix" values="0 0 0 0 0 0 0 0 0 0 0 0 0 0 0 0 0 0 127 0" result="hardAlpha"/>
<feOffset dy="2.36453"/>
<feGaussianBlur stdDeviation="0.591133"/>
<feComposite in2="hardAlpha" operator="out"/>
<feColorMatrix type="matrix" values="0 0 0 0 0 0 0 0 0 0 0 0 0 0 0 0 0 0 0.25 0"/>
<feBlend mode="normal" in2="BackgroundImageFix" result="effect1_dropShadow_463_80"/>
<feBlend mode="normal" in="SourceGraphic" in2="effect1_dropShadow_463_80" result="shape"/>
<feColorMatrix in="SourceAlpha" type="matrix" values="0 0 0 0 0 0 0 0 0 0 0 0 0 0 0 0 0 0 127 0" result="hardAlpha"/>
<feOffset dy="1.18227"/>
<feGaussianBlur stdDeviation="0.295566"/>
<feComposite in2="hardAlpha" operator="arithmetic" k2="-1" k3="1"/>
<feColorMatrix type="matrix" values="0 0 0 0 1 0 0 0 0 1 0 0 0 0 1 0 0 0 0.86 0"/>
<feBlend mode="normal" in2="shape" result="effect2_innerShadow_463_80"/>
<feColorMatrix in="SourceAlpha" type="matrix" values="0 0 0 0 0 0 0 0 0 0 0 0 0 0 0 0 0 0 127 0" result="hardAlpha"/>
<feOffset dy="-1.18227"/>
<feGaussianBlur stdDeviation="0.295566"/>
<feComposite in2="hardAlpha" operator="arithmetic" k2="-1" k3="1"/>
<feColorMatrix type="matrix" values="0 0 0 0 0 0 0 0 0 0 0 0 0 0 0 0 0 0 0.25 0"/>
<feBlend mode="normal" in2="effect2_innerShadow_463_80" result="effect3_innerShadow_463_80"/>
</filter>
<linearGradient id="paint0_linear_463_80" x1="31.4993" y1="69.405" x2="31.4993" y2="-4.81307e-06" gradientUnits="userSpaceOnUse">
<stop stop-color="white"/>
<stop offset="1" stop-color="#999999"/>
</linearGradient>
</defs>
</svg>
