<svg width="63" height="63" viewBox="0 0 63 63" fill="none" xmlns="http://www.w3.org/2000/svg">
<g filter="url(#filter0_dii_463_74)">
<path d="M51.4394 27.7083C53.0473 28.4977 55.0489 28.2234 56.3914 26.8822C58.0765 25.1988 58.0881 22.4727 56.4051 20.7913C56.163 20.5495 55.8934 20.3463 55.6126 20.1762C55.966 19.9221 56.2974 19.646 56.6123 19.3314C57.9879 17.957 58.7802 16.1985 59.0049 14.3145L60.9414 6.15964C61.1694 5.26146 60.7025 4.51904 60.048 3.86514L57.1329 0.95285C56.4674 0.287968 55.7132 -0.17846 54.8086 0.0658722L46.833 2.14333C44.8701 2.33495 43.0824 3.07689 41.657 4.50092C41.3532 4.80449 41.11 5.10242 40.8667 5.43339C40.7183 5.21894 40.57 5.00449 40.3829 4.81767C38.7054 3.14172 35.9823 3.13678 34.2972 4.82022C32.9933 6.12282 32.7024 8.05097 33.41 9.62995C25.294 7.88024 16.2813 10.3015 9.75649 16.82C-0.237854 26.8047 -0.625934 42.6001 8.89488 52.1117C18.4157 61.6234 34.2263 61.2357 44.2206 51.251C50.7233 44.7546 53.1578 35.7945 51.4394 27.7083ZM14.2428 27.0423C13.1361 26.4665 12.7037 25.0962 13.2905 23.9824C13.8773 22.8686 15.2399 22.4305 16.3576 23.0063C17.4643 23.5821 17.8968 24.9524 17.3099 26.0662C16.7231 27.1799 15.3551 27.6125 14.2428 27.0423ZM35.4075 8.74435C34.7309 8.06848 34.7389 6.97254 35.4129 6.29916C36.0925 5.62027 37.1894 5.62332 37.8605 6.2937C38.5315 6.96408 38.529 8.06552 37.855 8.73889C37.1754 9.41779 36.0785 9.41473 35.4075 8.74435ZM10.3694 38.5498C9.66466 38.1879 9.39648 37.3239 9.76737 36.6237C10.1328 35.9179 10.9988 35.6462 11.7036 36.0081C12.4084 36.37 12.6766 37.234 12.3057 37.9342C11.9348 38.6345 11.0742 38.9117 10.3694 38.5498ZM39.232 11.7042C39.2541 11.6931 39.2761 11.6821 39.3037 11.6655C39.3092 11.693 39.3092 11.715 39.3146 11.7425C39.2926 11.7316 39.265 11.7151 39.232 11.7042ZM54.757 23.174C55.4335 23.8499 55.4256 24.9458 54.7516 25.6192C54.072 26.2981 52.975 26.295 52.304 25.6247C51.6275 24.9488 51.6355 23.8529 52.3095 23.1795C52.989 22.5006 54.086 22.5036 54.757 23.174ZM49.595 21.7482C49.5452 21.8419 49.5009 21.9301 49.4511 22.0238C49.4017 21.9193 49.3468 21.8203 49.2919 21.7213C49.4021 21.7321 49.5013 21.7429 49.595 21.7482ZM23.0407 51.7167C21.477 50.9052 20.72 49.2437 21.3732 48.0086C22.0154 46.7736 23.8133 46.4281 25.3825 47.2452C26.9462 48.0568 27.7032 49.7183 27.05 50.9533C26.4023 52.1829 24.6045 52.5283 23.0407 51.7167ZM34.6067 48.8658C33.3582 47.6184 33.5616 45.3931 35.0643 43.8918C36.5671 42.3905 38.7946 42.1873 40.0431 43.4346C41.2917 44.682 41.0882 46.9073 39.5855 48.4086C38.0883 49.9044 35.8553 50.1131 34.6067 48.8658Z" fill="url(#paint0_linear_463_74)"/>
</g>
<defs>
<filter id="filter0_dii_463_74" x="0.817734" y="-0.591133" width="61.3645" height="63.1379" filterUnits="userSpaceOnUse" color-interpolation-filters="sRGB">
<feFlood flood-opacity="0" result="BackgroundImageFix"/>
<feColorMatrix in="SourceAlpha" type="matrix" values="0 0 0 0 0 0 0 0 0 0 0 0 0 0 0 0 0 0 127 0" result="hardAlpha"/>
<feOffset dy="2.36453"/>
<feGaussianBlur stdDeviation="0.591133"/>
<feComposite in2="hardAlpha" operator="out"/>
<feColorMatrix type="matrix" values="0 0 0 0 0 0 0 0 0 0 0 0 0 0 0 0 0 0 0.25 0"/>
<feBlend mode="normal" in2="BackgroundImageFix" result="effect1_dropShadow_463_74"/>
<feBlend mode="normal" in="SourceGraphic" in2="effect1_dropShadow_463_74" result="shape"/>
<feColorMatrix in="SourceAlpha" type="matrix" values="0 0 0 0 0 0 0 0 0 0 0 0 0 0 0 0 0 0 127 0" result="hardAlpha"/>
<feOffset dy="1.18227"/>
<feGaussianBlur stdDeviation="0.295566"/>
<feComposite in2="hardAlpha" operator="arithmetic" k2="-1" k3="1"/>
<feColorMatrix type="matrix" values="0 0 0 0 1 0 0 0 0 1 0 0 0 0 1 0 0 0 0.86 0"/>
<feBlend mode="normal" in2="shape" result="effect2_innerShadow_463_74"/>
<feColorMatrix in="SourceAlpha" type="matrix" values="0 0 0 0 0 0 0 0 0 0 0 0 0 0 0 0 0 0 127 0" result="hardAlpha"/>
<feOffset dy="-1.18227"/>
<feGaussianBlur stdDeviation="0.295566"/>
<feComposite in2="hardAlpha" operator="arithmetic" k2="-1" k3="1"/>
<feColorMatrix type="matrix" values="0 0 0 0 0 0 0 0 0 0 0 0 0 0 0 0 0 0 0.25 0"/>
<feBlend mode="normal" in2="effect2_innerShadow_463_74" result="effect3_innerShadow_463_74"/>
</filter>
<linearGradient id="paint0_linear_463_74" x1="0.125965" y1="60.8723" x2="58.5618" y2="2.38028" gradientUnits="userSpaceOnUse">
<stop stop-color="white"/>
<stop offset="1" stop-color="#999999"/>
</linearGradient>
</defs>
</svg>
