<svg width="67" height="67" viewBox="0 0 67 67" fill="none" xmlns="http://www.w3.org/2000/svg">
<g filter="url(#filter0_dii_463_68)">
<path fill-rule="evenodd" clip-rule="evenodd" d="M64.8075 5.81739C64.7859 5.8452 64.7624 5.87186 64.737 5.8972L62.5372 8.09605C62.5034 8.12991 62.4674 8.16054 62.4297 8.18786C62.1658 8.37913 61.8179 8.40875 61.525 8.25539L61.1926 8.08684L60.052 9.5636L61.3648 10.8759C61.5443 10.8084 61.7361 10.7729 61.9315 10.7729C62.3585 10.7729 62.768 10.9425 63.0699 11.2443C63.3718 11.5461 63.5415 11.9554 63.5415 12.3822C63.5415 12.809 63.3718 13.2184 63.0699 13.5202C62.768 13.822 62.3585 13.9915 61.9315 13.9915C61.5045 13.9915 61.095 13.822 60.7931 13.5202C60.4911 13.2184 60.3215 12.809 60.3215 12.3822C60.3215 12.1873 60.3569 11.9961 60.4241 11.8171L59.2319 10.6254L57.5473 12.8067L58.4936 13.7527C58.6737 13.6847 58.8661 13.649 59.0622 13.649C59.4892 13.649 59.8987 13.8185 60.2007 14.1203C60.5026 14.4221 60.6722 14.8315 60.6722 15.2583C60.6722 15.6851 60.5026 16.0944 60.2007 16.3962C59.8987 16.698 59.4892 16.8676 59.0622 16.8676C58.6352 16.8676 58.2257 16.698 57.9238 16.3962C57.6219 16.0944 57.4523 15.6851 57.4523 15.2583C57.4523 15.0641 57.4874 14.8735 57.5541 14.6951L56.7272 13.8685L56.3922 14.3022C56.0973 14.6368 55.6431 14.7324 55.4199 14.5094L54.8244 13.9142L44.2627 25.1897C47.6111 29.8467 48.393 35.9047 43.2893 40.2583C42.2691 41.1267 41.5199 42.1305 41.0417 42.9033C40.939 43.0675 40.7746 43.1421 40.6122 43.1397C40.391 43.1433 40.1697 43.0034 40.1092 42.7519C40.0693 42.5687 40.0215 42.4412 39.9896 42.4333C39.4659 42.3334 38.9465 42.2829 38.4392 42.2827C37.3651 42.2844 36.3456 42.5119 35.4546 42.9736V54.9412C35.4546 57.9049 34.1714 60.534 32.1948 61.6414L32.0354 61.7299V61.8644C32.0354 62.1433 31.8122 62.3663 31.5333 62.3663H30.6885C30.4095 62.3663 30.1863 62.1433 30.1863 61.8644V58.6577C28.0289 60.9652 25.1057 62.4008 21.9192 62.8488C20.4071 63.0615 18.8355 63.0517 17.2582 62.8071C16.7775 62.7326 16.2963 62.6362 15.8161 62.5177C15.6293 62.4714 15.4427 62.4218 15.2563 62.3688C12.4603 61.5739 9.71994 60.0246 7.34384 57.642L7.18443 57.4827C6.49402 56.7756 5.87521 56.0368 5.32644 55.2743C3.30169 52.461 2.23033 49.3251 2.03338 46.2706C1.96343 45.1858 2.00379 44.1112 2.1509 43.065C2.37544 41.4683 2.84867 39.9376 3.55801 38.5375C5.23972 35.2153 8.24447 32.6181 12.4049 31.6142C12.4208 31.6063 12.4208 31.5664 12.4129 31.5027C12.365 31.0327 12.8353 30.6821 13.2736 30.8494C15.2263 31.5903 19.1955 32.7694 21.0366 30.9291C22.5111 29.4552 22.9972 27.2882 22.5668 25.0416C22.5589 25.0018 22.3915 24.9539 22.1683 24.9061C21.73 24.8105 21.6184 24.2369 21.993 23.99C22.8378 23.4323 24.0015 22.5719 24.9818 21.4884C26.5237 19.8002 28.3107 18.8389 30.1863 18.4577V6.0645C30.1863 5.78566 30.4095 5.56259 30.6885 5.56259H31.5333C31.8122 5.56259 32.0354 5.79363 32.0354 6.0645V7.2675H33.5737V2.70248C33.5737 2.18464 33.9961 1.7624 34.5141 1.7624C35.0322 1.7624 35.4546 2.18464 35.4546 2.70248V18.7612C36.9429 19.1988 38.3975 19.908 39.7438 20.8189L51.1011 10.1924L50.5102 9.60179C50.2871 9.37872 50.3827 8.92461 50.7174 8.62984L51.9499 7.67188L50.9804 6.70278C50.7996 6.7706 50.608 6.80542 50.4146 6.80542C50.2032 6.80542 49.9938 6.76379 49.7985 6.68292C49.6032 6.60204 49.4257 6.4835 49.2762 6.33407C49.1267 6.18463 49.0081 6.00722 48.9272 5.81197C48.8463 5.61672 48.8046 5.40745 48.8046 5.19611C48.8046 4.98478 48.8463 4.77551 48.9272 4.58026C49.0081 4.38501 49.1267 4.2076 49.2762 4.05816C49.4257 3.90872 49.6032 3.79018 49.7985 3.70931C49.9938 3.62843 50.2032 3.58681 50.4146 3.58681C50.626 3.58681 50.8354 3.62843 51.0307 3.70931C51.226 3.79018 51.4035 3.90872 51.553 4.05816C51.7025 4.2076 51.8211 4.38501 51.902 4.58026C51.9829 4.77551 52.0246 4.98478 52.0246 5.19611C52.0246 5.38957 51.9897 5.58129 51.9217 5.76212L53.0088 6.84878L55.1784 5.16238L53.8501 3.83452C53.6708 3.90188 53.4792 3.93735 53.2839 3.93735C52.8569 3.93735 52.4474 3.7678 52.1454 3.46599C51.8435 3.16419 51.6739 2.75486 51.6739 2.32804C51.6739 1.90123 51.8435 1.49189 52.1454 1.19009C52.4474 0.888287 52.8569 0.718736 53.2839 0.718736C53.7109 0.718736 54.1204 0.888287 54.4223 1.19009C54.7242 1.49189 54.8938 1.90123 54.8938 2.32804C54.8938 2.52309 54.8584 2.71448 54.7911 2.89363L56.2374 4.33929L56.9317 3.79961L56.7748 3.50714C56.5915 3.16456 56.6553 2.75029 56.9263 2.47941L59.1499 0.256659C59.3253 0.081388 59.5723 -0.0142148 59.8274 0.00171898L60.7679 0.0654541C60.9831 0.0813879 61.1823 0.169023 61.3258 0.320394L61.6181 0.612611C61.6449 0.628911 61.6697 0.648334 61.6924 0.670937L63.0194 1.99743L63.0234 1.99343L64.7051 3.67444C64.8645 3.83378 64.9522 4.04092 64.9602 4.25602L65 5.23595C65 5.44723 64.9358 5.65268 64.8075 5.81739ZM33.5737 18.3597V12.4082L32.0354 12.4234V18.2649C32.5465 18.2595 33.0602 18.2921 33.5737 18.3597ZM32.0354 56.126V59.4059C32.9786 58.4229 33.5737 56.7564 33.5737 54.9412V52.6058C33.541 52.6014 33.5118 52.5991 33.4869 52.5987C33.4399 52.5996 33.4111 52.6083 33.4063 52.6229C33.0925 53.9001 32.6272 55.0698 32.0354 56.126ZM33.5737 44.8368V48.9762C33.3034 47.5136 33.1844 45.9363 33.5737 44.8368ZM26.2012 54.272C26.0418 54.272 25.8744 54.2322 25.731 54.1445C25.0376 53.7382 24.2565 52.6627 24.1927 51.2765C24.1369 50.1213 24.5594 48.4004 26.8866 46.7274C29.2378 45.0384 28.8473 43.9788 28.8393 43.9708C28.5604 43.5327 28.6959 42.9511 29.1342 42.6722C29.5726 42.3934 30.1544 42.5288 30.4334 42.967C30.4971 43.0626 31.9238 45.4288 27.9865 48.257C26.6874 49.1892 26.0259 50.2009 26.0737 51.1888C26.1056 51.9457 26.5439 52.4396 26.6874 52.5193C27.1337 52.7822 27.2852 53.3558 27.0221 53.802C26.8388 54.1047 26.528 54.272 26.2012 54.272ZM10.8985 38.5534C10.8268 38.394 10.7949 38.2267 10.8108 38.0674C10.8427 37.7408 11.034 37.446 11.3528 37.3026C11.823 37.0795 12.3809 37.2787 12.6041 37.7487C12.6758 37.9001 13.1301 38.3701 13.8793 38.4737C14.8597 38.6012 15.9197 38.0276 16.9638 36.8166C20.112 33.1359 22.3437 34.7611 22.4393 34.8329C22.8537 35.1436 22.9334 35.7331 22.6226 36.1474C22.3118 36.5617 21.722 36.6413 21.3075 36.3306C21.2996 36.3227 20.2714 35.8367 18.3904 38.0355C16.5254 40.2105 14.772 40.4814 13.6243 40.33C12.2455 40.1468 11.2412 39.2784 10.8985 38.5534Z" fill="url(#paint0_linear_463_68)"/>
</g>
<defs>
<filter id="filter0_dii_463_68" x="0.817734" y="-0.591133" width="65.3645" height="67.1379" filterUnits="userSpaceOnUse" color-interpolation-filters="sRGB">
<feFlood flood-opacity="0" result="BackgroundImageFix"/>
<feColorMatrix in="SourceAlpha" type="matrix" values="0 0 0 0 0 0 0 0 0 0 0 0 0 0 0 0 0 0 127 0" result="hardAlpha"/>
<feOffset dy="2.36453"/>
<feGaussianBlur stdDeviation="0.591133"/>
<feComposite in2="hardAlpha" operator="out"/>
<feColorMatrix type="matrix" values="0 0 0 0 0 0 0 0 0 0 0 0 0 0 0 0 0 0 0.25 0"/>
<feBlend mode="normal" in2="BackgroundImageFix" result="effect1_dropShadow_463_68"/>
<feBlend mode="normal" in="SourceGraphic" in2="effect1_dropShadow_463_68" result="shape"/>
<feColorMatrix in="SourceAlpha" type="matrix" values="0 0 0 0 0 0 0 0 0 0 0 0 0 0 0 0 0 0 127 0" result="hardAlpha"/>
<feOffset dy="1.18227"/>
<feGaussianBlur stdDeviation="0.295566"/>
<feComposite in2="hardAlpha" operator="arithmetic" k2="-1" k3="1"/>
<feColorMatrix type="matrix" values="0 0 0 0 1 0 0 0 0 1 0 0 0 0 1 0 0 0 0.86 0"/>
<feBlend mode="normal" in2="shape" result="effect2_innerShadow_463_68"/>
<feColorMatrix in="SourceAlpha" type="matrix" values="0 0 0 0 0 0 0 0 0 0 0 0 0 0 0 0 0 0 127 0" result="hardAlpha"/>
<feOffset dy="-1.18227"/>
<feGaussianBlur stdDeviation="0.295566"/>
<feComposite in2="hardAlpha" operator="arithmetic" k2="-1" k3="1"/>
<feColorMatrix type="matrix" values="0 0 0 0 0 0 0 0 0 0 0 0 0 0 0 0 0 0 0.25 0"/>
<feBlend mode="normal" in2="effect2_innerShadow_463_68" result="effect3_innerShadow_463_68"/>
</filter>
<linearGradient id="paint0_linear_463_68" x1="33.5" y1="74.1104" x2="33.5" y2="-5.13938e-06" gradientUnits="userSpaceOnUse">
<stop stop-color="white"/>
<stop offset="1" stop-color="#999999"/>
</linearGradient>
</defs>
</svg>
