<svg width="72" height="79" viewBox="0 0 72 79" fill="none" xmlns="http://www.w3.org/2000/svg">
<g filter="url(#filter0_dii_463_363)">
<path d="M6.13913 72.7109C4.24195 74.5874 0.921893 77.8713 2.34478 69.8962C5.65677 56.3245 39.6483 5.40485 68.0642 0.0346453C68.2042 0.00819638 68.362 -0.00531948 68.5043 0.0019519C73.8535 0.275257 63.5934 10.2613 57.5475 15.7315C56.044 17.0918 56.88 19.3216 58.8863 18.9465C59.2677 18.8752 59.6594 18.7903 60.058 18.6895C62.3133 18.119 65.2853 20.2381 64.0675 22.1917C61.5149 26.2866 57.8957 28.5238 54.4403 29.8612C52.1471 30.7488 52.1773 33.9635 54.6384 33.842C54.6906 33.8394 54.7431 33.8366 54.7957 33.8334C56.7882 33.7152 58.3252 35.5318 56.898 36.9052C53.0595 40.5988 44.9939 44.5805 27.4824 48.3163C17.0479 52.0693 8.03631 70.8344 6.13913 72.7109Z" fill="url(#paint0_linear_463_363)"/>
</g>
<defs>
<filter id="filter0_dii_463_363" x="0.817734" y="-0.591133" width="70.3645" height="79.1379" filterUnits="userSpaceOnUse" color-interpolation-filters="sRGB">
<feFlood flood-opacity="0" result="BackgroundImageFix"/>
<feColorMatrix in="SourceAlpha" type="matrix" values="0 0 0 0 0 0 0 0 0 0 0 0 0 0 0 0 0 0 127 0" result="hardAlpha"/>
<feOffset dy="2.36453"/>
<feGaussianBlur stdDeviation="0.591133"/>
<feComposite in2="hardAlpha" operator="out"/>
<feColorMatrix type="matrix" values="0 0 0 0 0 0 0 0 0 0 0 0 0 0 0 0 0 0 0.25 0"/>
<feBlend mode="normal" in2="BackgroundImageFix" result="effect1_dropShadow_463_363"/>
<feBlend mode="normal" in="SourceGraphic" in2="effect1_dropShadow_463_363" result="shape"/>
<feColorMatrix in="SourceAlpha" type="matrix" values="0 0 0 0 0 0 0 0 0 0 0 0 0 0 0 0 0 0 127 0" result="hardAlpha"/>
<feOffset dy="1.18227"/>
<feGaussianBlur stdDeviation="0.295566"/>
<feComposite in2="hardAlpha" operator="arithmetic" k2="-1" k3="1"/>
<feColorMatrix type="matrix" values="0 0 0 0 1 0 0 0 0 1 0 0 0 0 1 0 0 0 0.86 0"/>
<feBlend mode="normal" in2="shape" result="effect2_innerShadow_463_363"/>
<feColorMatrix in="SourceAlpha" type="matrix" values="0 0 0 0 0 0 0 0 0 0 0 0 0 0 0 0 0 0 127 0" result="hardAlpha"/>
<feOffset dy="-1.18227"/>
<feGaussianBlur stdDeviation="0.295566"/>
<feComposite in2="hardAlpha" operator="arithmetic" k2="-1" k3="1"/>
<feColorMatrix type="matrix" values="0 0 0 0 0 0 0 0 0 0 0 0 0 0 0 0 0 0 0.25 0"/>
<feBlend mode="normal" in2="effect2_innerShadow_463_363" result="effect3_innerShadow_463_363"/>
</filter>
<linearGradient id="paint0_linear_463_363" x1="36" y1="70.4545" x2="35.9999" y2="-0.00380803" gradientUnits="userSpaceOnUse">
<stop stop-color="#A1D632"/>
<stop offset="1" stop-color="#EBFEC1"/>
</linearGradient>
</defs>
</svg>
