<svg width="48" height="53" viewBox="0 0 48 53" fill="none" xmlns="http://www.w3.org/2000/svg">
<path d="M32 1.76667C32 0.791032 32.796 0 33.7778 0H35.5556C36.5374 0 37.3333 0.791032 37.3333 1.76667V51.2333C37.3333 52.209 36.5374 53 35.5556 53H33.7778C32.796 53 32 52.209 32 51.2333V1.76667Z" fill="white"/>
<path d="M10.6667 10.6C10.6667 9.62437 11.4626 8.83333 12.4444 8.83333H14.2222C15.204 8.83333 16 9.62437 16 10.6V42.4C16 43.3756 15.204 44.1667 14.2222 44.1667H12.4444C11.4626 44.1667 10.6667 43.3756 10.6667 42.4V10.6Z" fill="white"/>
<path d="M0 22.9667C0 21.991 0.795953 21.2 1.77778 21.2H3.55556C4.53738 21.2 5.33333 21.991 5.33333 22.9667V30.0333C5.33333 31.009 4.53738 31.8 3.55556 31.8H1.77778C0.795953 31.8 0 31.009 0 30.0333V22.9667Z" fill="white"/>
<path d="M23.1111 15.9C22.1293 15.9 21.3333 16.691 21.3333 17.6667V35.3333C21.3333 36.309 22.1293 37.1 23.1111 37.1H24.8889C25.8707 37.1 26.6667 36.309 26.6667 35.3333V17.6667C26.6667 16.691 25.8707 15.9 24.8889 15.9H23.1111Z" fill="white"/>
<path d="M44.4444 21.2C43.4626 21.2 42.6667 21.991 42.6667 22.9667V30.0333C42.6667 31.009 43.4626 31.8 44.4444 31.8H46.2222C47.204 31.8 48 31.009 48 30.0333V22.9667C48 21.991 47.204 21.2 46.2222 21.2H44.4444Z" fill="white"/>
</svg>
