<svg width="65" height="65" viewBox="0 0 65 65" fill="none" xmlns="http://www.w3.org/2000/svg">
<g filter="url(#filter0_dii_128_18)">
<path d="M19.5411 8.61757C20.5301 9.11238 21.6917 9.07829 22.7005 8.62522C23.1172 8.43809 23.5392 8.26297 23.9659 8.10011C24.9974 7.70644 25.8409 6.91 26.1898 5.86253L27.3707 2.31779C27.8318 0.933676 29.127 0 30.5859 0H34.4137C35.8728 0 37.1681 0.933947 37.629 2.31834L38.8076 5.8583C39.158 6.91055 40.0074 7.70887 41.0439 8.10336C41.4678 8.2647 41.8857 8.43804 42.2972 8.62283C43.3076 9.07657 44.4711 9.11161 45.4615 8.61579L48.7985 6.94523C50.103 6.29217 51.6791 6.54724 52.711 7.57844L55.4195 10.285C56.4518 11.3166 56.7078 12.8933 56.0548 14.1985L54.3823 17.5413C53.8876 18.5302 53.9217 19.6916 54.3753 20.7001C54.5618 21.1148 54.7368 21.5357 54.8999 21.9627C55.2943 22.9957 56.0913 23.8413 57.1404 24.1908L60.6822 25.3707C62.0663 25.8318 63 27.127 63 28.5859V32.4137C63 33.8728 62.0661 35.1681 60.6817 35.629L57.1352 36.8098C56.0865 37.159 55.2895 38.0036 54.8961 39.0364C54.7338 39.4626 54.5593 39.8839 54.3729 40.3C53.9209 41.3085 53.8875 42.4693 54.3822 43.4575L56.0548 46.7985C56.7078 48.103 56.4528 49.6791 55.4216 50.711L52.715 53.4195C51.6834 54.4518 50.1067 54.7078 48.8015 54.0548L45.4589 52.3824C44.4699 51.8876 43.3083 51.9217 42.2995 52.3748C41.8828 52.5619 41.4608 52.737 41.0341 52.8999C40.0026 53.2936 39.1591 54.09 38.8102 55.1375L37.6293 58.6822C37.1682 60.0663 35.873 61 34.4141 61H30.5863C29.1272 61 27.8319 60.0661 27.371 58.6817L26.1902 55.1352C25.841 54.0865 24.9964 53.2895 23.9636 52.8961C23.5374 52.7338 23.1161 52.5593 22.7 52.3729C21.6915 51.9209 20.5307 51.8875 19.5425 52.3822L16.2015 54.0548C14.897 54.7078 13.3209 54.4528 12.289 53.4216L9.5805 50.715C8.54817 49.6834 8.29222 48.1067 8.94522 46.8015L10.6176 43.4589C11.1124 42.4699 11.0783 41.3083 10.6252 40.2995C10.4381 39.8828 10.263 39.4608 10.1001 39.0341C9.70644 38.0026 8.91 37.1591 7.86253 36.8102L4.31779 35.6293C2.93368 35.1682 2 33.873 2 32.4141V28.5863C2 27.1272 2.93395 25.8319 4.31834 25.371L7.8583 24.1923C8.91055 23.842 9.70887 22.9926 10.1034 21.9561C10.2647 21.5322 10.438 21.1143 10.6228 20.7028C11.0766 19.6924 11.1116 18.5289 10.6158 17.5385L8.94522 14.2015C8.29216 12.897 8.54724 11.3209 9.57844 10.289L12.285 7.5805C13.3166 6.54817 14.8933 6.29222 16.1985 6.94522L19.5411 8.61757ZM32.5 41.3929C35.389 41.3929 38.1596 40.2452 40.2024 38.2024C42.2452 36.1596 43.3929 33.389 43.3929 30.5C43.3929 27.611 42.2452 24.8404 40.2024 22.7976C38.1596 20.7548 35.389 19.6071 32.5 19.6071C29.611 19.6071 26.8404 20.7548 24.7976 22.7976C22.7548 24.8404 21.6071 27.611 21.6071 30.5C21.6071 33.389 22.7548 36.1596 24.7976 38.2024C26.8404 40.2452 29.611 41.3929 32.5 41.3929Z" fill="url(#paint0_linear_128_18)"/>
</g>
<defs>
<filter id="filter0_dii_128_18" x="0.817734" y="-0.591133" width="63.3645" height="65.1379" filterUnits="userSpaceOnUse" color-interpolation-filters="sRGB">
<feFlood flood-opacity="0" result="BackgroundImageFix"/>
<feColorMatrix in="SourceAlpha" type="matrix" values="0 0 0 0 0 0 0 0 0 0 0 0 0 0 0 0 0 0 127 0" result="hardAlpha"/>
<feOffset dy="2.36453"/>
<feGaussianBlur stdDeviation="0.591133"/>
<feComposite in2="hardAlpha" operator="out"/>
<feColorMatrix type="matrix" values="0 0 0 0 0 0 0 0 0 0 0 0 0 0 0 0 0 0 0.25 0"/>
<feBlend mode="normal" in2="BackgroundImageFix" result="effect1_dropShadow_128_18"/>
<feBlend mode="normal" in="SourceGraphic" in2="effect1_dropShadow_128_18" result="shape"/>
<feColorMatrix in="SourceAlpha" type="matrix" values="0 0 0 0 0 0 0 0 0 0 0 0 0 0 0 0 0 0 127 0" result="hardAlpha"/>
<feOffset dy="1.18227"/>
<feGaussianBlur stdDeviation="0.295566"/>
<feComposite in2="hardAlpha" operator="arithmetic" k2="-1" k3="1"/>
<feColorMatrix type="matrix" values="0 0 0 0 1 0 0 0 0 1 0 0 0 0 1 0 0 0 0.86 0"/>
<feBlend mode="normal" in2="shape" result="effect2_innerShadow_128_18"/>
<feColorMatrix in="SourceAlpha" type="matrix" values="0 0 0 0 0 0 0 0 0 0 0 0 0 0 0 0 0 0 127 0" result="hardAlpha"/>
<feOffset dy="-1.18227"/>
<feGaussianBlur stdDeviation="0.295566"/>
<feComposite in2="hardAlpha" operator="arithmetic" k2="-1" k3="1"/>
<feColorMatrix type="matrix" values="0 0 0 0 0 0 0 0 0 0 0 0 0 0 0 0 0 0 0.25 0"/>
<feBlend mode="normal" in2="effect2_innerShadow_128_18" result="effect3_innerShadow_128_18"/>
</filter>
<linearGradient id="paint0_linear_128_18" x1="32.5" y1="66.9739" x2="32.5" y2="-4.64448e-06" gradientUnits="userSpaceOnUse">
<stop stop-color="white"/>
<stop offset="1" stop-color="#999999"/>
</linearGradient>
</defs>
</svg>
