<svg width="46" height="60" viewBox="0 0 46 60" fill="none" xmlns="http://www.w3.org/2000/svg">
<g filter="url(#filter0_dii_463_6)">
<path d="M2 2.36453C2 1.05864 3.05864 0 4.36453 0H14.6355C15.9414 0 17 1.05864 17 2.36453V53.6355C17 54.9414 15.9414 56 14.6355 56H4.36453C3.05864 56 2 54.9414 2 53.6355V2.36453Z" fill="url(#paint0_linear_463_6)"/>
<path d="M29 2.36453C29 1.05864 30.0586 0 31.3645 0H41.6355C42.9414 0 44 1.05864 44 2.36453V53.6355C44 54.9414 42.9414 56 41.6355 56H31.3645C30.0586 56 29 54.9414 29 53.6355V2.36453Z" fill="url(#paint1_linear_463_6)"/>
</g>
<defs>
<filter id="filter0_dii_463_6" x="0.817734" y="-0.591133" width="44.3645" height="60.1379" filterUnits="userSpaceOnUse" color-interpolation-filters="sRGB">
<feFlood flood-opacity="0" result="BackgroundImageFix"/>
<feColorMatrix in="SourceAlpha" type="matrix" values="0 0 0 0 0 0 0 0 0 0 0 0 0 0 0 0 0 0 127 0" result="hardAlpha"/>
<feOffset dy="2.36453"/>
<feGaussianBlur stdDeviation="0.591133"/>
<feComposite in2="hardAlpha" operator="out"/>
<feColorMatrix type="matrix" values="0 0 0 0 0 0 0 0 0 0 0 0 0 0 0 0 0 0 0.25 0"/>
<feBlend mode="normal" in2="BackgroundImageFix" result="effect1_dropShadow_463_6"/>
<feBlend mode="normal" in="SourceGraphic" in2="effect1_dropShadow_463_6" result="shape"/>
<feColorMatrix in="SourceAlpha" type="matrix" values="0 0 0 0 0 0 0 0 0 0 0 0 0 0 0 0 0 0 127 0" result="hardAlpha"/>
<feOffset dy="1.18227"/>
<feGaussianBlur stdDeviation="0.295566"/>
<feComposite in2="hardAlpha" operator="arithmetic" k2="-1" k3="1"/>
<feColorMatrix type="matrix" values="0 0 0 0 1 0 0 0 0 1 0 0 0 0 1 0 0 0 0.86 0"/>
<feBlend mode="normal" in2="shape" result="effect2_innerShadow_463_6"/>
<feColorMatrix in="SourceAlpha" type="matrix" values="0 0 0 0 0 0 0 0 0 0 0 0 0 0 0 0 0 0 127 0" result="hardAlpha"/>
<feOffset dy="-1.18227"/>
<feGaussianBlur stdDeviation="0.295566"/>
<feComposite in2="hardAlpha" operator="arithmetic" k2="-1" k3="1"/>
<feColorMatrix type="matrix" values="0 0 0 0 0 0 0 0 0 0 0 0 0 0 0 0 0 0 0.25 0"/>
<feBlend mode="normal" in2="effect2_innerShadow_463_6" result="effect3_innerShadow_463_6"/>
</filter>
<linearGradient id="paint0_linear_463_6" x1="36.5" y1="61.4845" x2="36.5" y2="-0.00284454" gradientUnits="userSpaceOnUse">
<stop stop-color="white"/>
<stop offset="1" stop-color="#999999"/>
</linearGradient>
<linearGradient id="paint1_linear_463_6" x1="36.5" y1="61.4845" x2="36.5" y2="-0.00284454" gradientUnits="userSpaceOnUse">
<stop stop-color="white"/>
<stop offset="1" stop-color="#999999"/>
</linearGradient>
</defs>
</svg>
