<svg width="63" height="64" viewBox="0 0 63 64" fill="none" xmlns="http://www.w3.org/2000/svg">
<g filter="url(#filter0_dii_199_10723)">
<path d="M31.5 0C23.0786 0 15.4489 3.41752 9.93327 8.93326C9.33113 9.53539 8.57766 10.3261 7.77778 11.1828V7.90741C7.77778 6.03578 6.26052 4.51852 4.38889 4.51852C2.51726 4.51852 1 6.03578 1 7.90741V19.9552C1 19.9549 1 19.9555 1 19.9552V20.3333C1 22.205 2.51726 23.7222 4.38889 23.7222H16.8148C18.6865 23.7222 20.2037 22.205 20.2037 20.3333C20.2037 18.4617 18.6865 16.9444 16.8148 16.9444H11.6791C12.8297 15.6946 13.9427 14.509 14.7259 13.7259C19.0224 9.42927 24.9483 6.77778 31.5 6.77778C44.6014 6.77778 55.2222 17.3986 55.2222 30.5C55.2222 43.6014 44.6014 54.2222 31.5 54.2222C24.9483 54.2222 19.0224 51.5708 14.7259 47.2741C13.4025 45.9507 11.2568 45.9507 9.93329 47.2741C8.60983 48.5975 8.60979 50.7432 9.93322 52.0667C15.4489 57.5825 23.0785 61 31.5 61C48.3446 61 62 47.3446 62 30.5C62 13.6554 48.3446 0 31.5 0Z" fill="url(#paint0_linear_199_10723)"/>
</g>
<defs>
<filter id="filter0_dii_199_10723" x="0" y="-0.5" width="63" height="64.5" filterUnits="userSpaceOnUse" color-interpolation-filters="sRGB">
<feFlood flood-opacity="0" result="BackgroundImageFix"/>
<feColorMatrix in="SourceAlpha" type="matrix" values="0 0 0 0 0 0 0 0 0 0 0 0 0 0 0 0 0 0 127 0" result="hardAlpha"/>
<feOffset dy="2"/>
<feGaussianBlur stdDeviation="0.5"/>
<feComposite in2="hardAlpha" operator="out"/>
<feColorMatrix type="matrix" values="0 0 0 0 0 0 0 0 0 0 0 0 0 0 0 0 0 0 0.25 0"/>
<feBlend mode="normal" in2="BackgroundImageFix" result="effect1_dropShadow_199_10723"/>
<feBlend mode="normal" in="SourceGraphic" in2="effect1_dropShadow_199_10723" result="shape"/>
<feColorMatrix in="SourceAlpha" type="matrix" values="0 0 0 0 0 0 0 0 0 0 0 0 0 0 0 0 0 0 127 0" result="hardAlpha"/>
<feOffset dy="1"/>
<feGaussianBlur stdDeviation="0.25"/>
<feComposite in2="hardAlpha" operator="arithmetic" k2="-1" k3="1"/>
<feColorMatrix type="matrix" values="0 0 0 0 1 0 0 0 0 1 0 0 0 0 1 0 0 0 0.86 0"/>
<feBlend mode="normal" in2="shape" result="effect2_innerShadow_199_10723"/>
<feColorMatrix in="SourceAlpha" type="matrix" values="0 0 0 0 0 0 0 0 0 0 0 0 0 0 0 0 0 0 127 0" result="hardAlpha"/>
<feOffset dy="-1"/>
<feGaussianBlur stdDeviation="0.25"/>
<feComposite in2="hardAlpha" operator="arithmetic" k2="-1" k3="1"/>
<feColorMatrix type="matrix" values="0 0 0 0 0 0 0 0 0 0 0 0 0 0 0 0 0 0 0.25 0"/>
<feBlend mode="normal" in2="effect2_innerShadow_199_10723" result="effect3_innerShadow_199_10723"/>
</filter>
<linearGradient id="paint0_linear_199_10723" x1="31.5" y1="66.9742" x2="31.5" y2="-0.00309857" gradientUnits="userSpaceOnUse">
<stop stop-color="white"/>
<stop offset="1" stop-color="#999999"/>
</linearGradient>
</defs>
</svg>
