<?xml version="1.0" standalone="no"?><!DOCTYPE svg PUBLIC "-//W3C//DTD SVG 1.1//EN" "http://www.w3.org/Graphics/SVG/1.1/DTD/svg11.dtd"><svg t="1735208543087" class="icon" viewBox="0 0 1024 1024" version="1.1" xmlns="http://www.w3.org/2000/svg" p-id="5670" xmlns:xlink="http://www.w3.org/1999/xlink" width="64" height="64"><path d="M818.176 177.152l12.288-16.384c4.096-5.12 3.072-13.312-2.048-17.408-5.12-4.096-13.312-3.072-17.408 2.048L798.72 162.816l-21.504-16.384-62.464 67.584 28.672 21.504-44.032 57.344-11.264-104.448c-4.096-45.056-34.816-86.016-76.8-86.016H353.28c-43.008 0-72.704 39.936-77.824 86.016l-65.536 638.976c-5.12 51.2 31.744 94.208 82.944 94.208h378.88c50.176 0 88.064-43.008 82.944-94.208l-51.2-498.688 59.392-78.848 26.624 20.48 47.104-77.824-18.432-15.36zM653.312 578.56H514.048L655.36 392.192l18.432 163.84c1.024 11.264-8.192 22.528-20.48 22.528zM513.024 153.6H614.4c8.192 0 14.336 5.12 15.36 13.312l21.504 190.464L502.784 552.96V163.84c0-5.12 4.096-10.24 10.24-10.24z m-179.2 13.312c1.024-8.192 8.192-13.312 15.36-13.312H460.8c6.144 0 11.264 5.12 11.264 11.264v413.696H311.296c-12.288 0-21.504-10.24-20.48-22.528l43.008-389.12zM659.456 860.16H303.104c-23.552 0-39.936-18.432-37.888-41.984l17.408-159.744c2.048-18.432 20.48-33.792 40.96-33.792h314.368c20.48 0 38.912 15.36 40.96 33.792L696.32 818.176c3.072 23.552-13.312 41.984-36.864 41.984z" fill="#cdcdcd" p-id="5671"></path></svg>