<svg width="46" height="54" viewBox="0 0 46 54" fill="none" xmlns="http://www.w3.org/2000/svg">
<g filter="url(#filter0_dii_1612_1687)">
<path d="M25.5 3C25.5 1.61929 24.3807 0.5 23 0.5C21.6193 0.5 20.5 1.61929 20.5 3V13C20.5 14.3807 21.6193 15.5 23 15.5C24.3807 15.5 25.5 14.3807 25.5 13V3Z" fill="url(#paint0_linear_1612_1687)"/>
<path d="M7 15.5C8.38071 15.5 9.5 16.6193 9.5 18L9.5 48C9.5 49.3807 8.38071 50.5 7 50.5C5.61929 50.5 4.5 49.3807 4.5 48L4.5 18C4.5 16.6193 5.61929 15.5 7 15.5Z" fill="url(#paint1_linear_1612_1687)"/>
<path d="M23 34.5C24.3807 34.5 25.5 35.6193 25.5 37V48C25.5 49.3807 24.3807 50.5 23 50.5C21.6193 50.5 20.5 49.3807 20.5 48V37C20.5 35.6193 21.6193 34.5 23 34.5Z" fill="url(#paint2_linear_1612_1687)"/>
<path d="M39 0.5C40.3807 0.5 41.5 1.61929 41.5 3V32C41.5 33.3807 40.3807 34.5 39 34.5C37.6193 34.5 36.5 33.3807 36.5 32V3C36.5 1.61929 37.6193 0.5 39 0.5Z" fill="url(#paint3_linear_1612_1687)"/>
<path d="M13 6.5C13 9.81368 10.3137 12.5 7 12.5C3.6863 12.5 1 9.81368 1 6.5C1 3.1863 3.6863 0.5 7 0.5C10.3137 0.5 13 3.1863 13 6.5Z" fill="url(#paint4_linear_1612_1687)"/>
<path d="M23 31C26.3137 31 29 28.3137 29 25C29 21.6863 26.3137 19 23 19C19.6863 19 17 21.6863 17 25C17 28.3137 19.6863 31 23 31Z" fill="url(#paint5_linear_1612_1687)"/>
<path d="M45 44.5C45 47.8137 42.3137 50.5 39 50.5C35.6863 50.5 33 47.8137 33 44.5C33 41.1863 35.6863 38.5 39 38.5C42.3137 38.5 45 41.1863 45 44.5Z" fill="url(#paint6_linear_1612_1687)"/>
</g>
<defs>
<filter id="filter0_dii_1612_1687" x="0" y="0" width="46" height="53.5" filterUnits="userSpaceOnUse" color-interpolation-filters="sRGB">
<feFlood flood-opacity="0" result="BackgroundImageFix"/>
<feColorMatrix in="SourceAlpha" type="matrix" values="0 0 0 0 0 0 0 0 0 0 0 0 0 0 0 0 0 0 127 0" result="hardAlpha"/>
<feOffset dy="2"/>
<feGaussianBlur stdDeviation="0.5"/>
<feComposite in2="hardAlpha" operator="out"/>
<feColorMatrix type="matrix" values="0 0 0 0 0 0 0 0 0 0 0 0 0 0 0 0 0 0 0.25 0"/>
<feBlend mode="normal" in2="BackgroundImageFix" result="effect1_dropShadow_1612_1687"/>
<feBlend mode="normal" in="SourceGraphic" in2="effect1_dropShadow_1612_1687" result="shape"/>
<feColorMatrix in="SourceAlpha" type="matrix" values="0 0 0 0 0 0 0 0 0 0 0 0 0 0 0 0 0 0 127 0" result="hardAlpha"/>
<feOffset dy="1"/>
<feGaussianBlur stdDeviation="0.25"/>
<feComposite in2="hardAlpha" operator="arithmetic" k2="-1" k3="1"/>
<feColorMatrix type="matrix" values="0 0 0 0 1 0 0 0 0 1 0 0 0 0 1 0 0 0 0.86 0"/>
<feBlend mode="normal" in2="shape" result="effect2_innerShadow_1612_1687"/>
<feColorMatrix in="SourceAlpha" type="matrix" values="0 0 0 0 0 0 0 0 0 0 0 0 0 0 0 0 0 0 127 0" result="hardAlpha"/>
<feOffset dy="-1"/>
<feGaussianBlur stdDeviation="0.25"/>
<feComposite in2="hardAlpha" operator="arithmetic" k2="-1" k3="1"/>
<feColorMatrix type="matrix" values="0 0 0 0 0 0 0 0 0 0 0 0 0 0 0 0 0 0 0.25 0"/>
<feBlend mode="normal" in2="effect2_innerShadow_1612_1687" result="effect3_innerShadow_1612_1687"/>
</filter>
<linearGradient id="paint0_linear_1612_1687" x1="23" y1="55.3966" x2="23" y2="0.499999" gradientUnits="userSpaceOnUse">
<stop stop-color="white"/>
<stop offset="1" stop-color="#999999"/>
</linearGradient>
<linearGradient id="paint1_linear_1612_1687" x1="23" y1="55.3966" x2="23" y2="0.499999" gradientUnits="userSpaceOnUse">
<stop stop-color="white"/>
<stop offset="1" stop-color="#999999"/>
</linearGradient>
<linearGradient id="paint2_linear_1612_1687" x1="23" y1="55.3966" x2="23" y2="0.499999" gradientUnits="userSpaceOnUse">
<stop stop-color="white"/>
<stop offset="1" stop-color="#999999"/>
</linearGradient>
<linearGradient id="paint3_linear_1612_1687" x1="23" y1="55.3966" x2="23" y2="0.499999" gradientUnits="userSpaceOnUse">
<stop stop-color="white"/>
<stop offset="1" stop-color="#999999"/>
</linearGradient>
<linearGradient id="paint4_linear_1612_1687" x1="23" y1="55.3966" x2="23" y2="0.499999" gradientUnits="userSpaceOnUse">
<stop stop-color="white"/>
<stop offset="1" stop-color="#999999"/>
</linearGradient>
<linearGradient id="paint5_linear_1612_1687" x1="23" y1="55.3966" x2="23" y2="0.499999" gradientUnits="userSpaceOnUse">
<stop stop-color="white"/>
<stop offset="1" stop-color="#999999"/>
</linearGradient>
<linearGradient id="paint6_linear_1612_1687" x1="23" y1="55.3966" x2="23" y2="0.499999" gradientUnits="userSpaceOnUse">
<stop stop-color="white"/>
<stop offset="1" stop-color="#999999"/>
</linearGradient>
</defs>
</svg>
