<svg width="50" height="70" viewBox="0 0 50 70" fill="none" xmlns="http://www.w3.org/2000/svg">
<g filter="url(#filter0_dii_1612_854)">
<path d="M19.9913 0C18.4227 0 17.0473 1.10781 16.6319 2.70616L1.12643 62.3435C0.517257 64.6868 2.18607 67 4.48599 67H45.514C47.8139 67 49.4827 64.6868 48.8736 62.3435L41.4925 33.9541C41.2645 33.0773 40.0815 32.9312 39.6471 33.7262L28.3887 54.3311C28.2134 54.652 27.8768 54.8517 27.5112 54.8517H24.3033C23.5335 54.8517 22.9097 54.1923 22.9097 53.3791V7.73077C22.9097 6.91757 23.5335 6.25824 24.3033 6.25824H25.6969C26.4665 6.25824 27.0904 6.91757 27.0904 7.73077V38.4271C27.0904 39.4627 28.4714 39.8154 28.968 38.9066L38.1368 22.1257C38.2588 21.9024 38.2911 21.6409 38.227 21.3946L33.3681 2.70616C32.9527 1.10781 31.5773 0 30.0087 0H19.9913Z" fill="url(#paint0_linear_1612_854)"/>
<path d="M47.7139 11.7802C47.2139 11.4752 46.5748 11.6562 46.2862 12.1845L24.3375 52.3547C24.0488 52.883 24.2201 53.5583 24.7201 53.8634C25.2199 54.1682 25.8592 53.9874 26.1478 53.4591L48.0965 13.2889C48.385 12.7606 48.2137 12.0853 47.7139 11.7802Z" fill="url(#paint1_linear_1612_854)"/>
</g>
<defs>
<filter id="filter0_dii_1612_854" x="0" y="-0.5" width="50" height="70.5" filterUnits="userSpaceOnUse" color-interpolation-filters="sRGB">
<feFlood flood-opacity="0" result="BackgroundImageFix"/>
<feColorMatrix in="SourceAlpha" type="matrix" values="0 0 0 0 0 0 0 0 0 0 0 0 0 0 0 0 0 0 127 0" result="hardAlpha"/>
<feOffset dy="2"/>
<feGaussianBlur stdDeviation="0.5"/>
<feComposite in2="hardAlpha" operator="out"/>
<feColorMatrix type="matrix" values="0 0 0 0 0 0 0 0 0 0 0 0 0 0 0 0 0 0 0.25 0"/>
<feBlend mode="normal" in2="BackgroundImageFix" result="effect1_dropShadow_1612_854"/>
<feBlend mode="normal" in="SourceGraphic" in2="effect1_dropShadow_1612_854" result="shape"/>
<feColorMatrix in="SourceAlpha" type="matrix" values="0 0 0 0 0 0 0 0 0 0 0 0 0 0 0 0 0 0 127 0" result="hardAlpha"/>
<feOffset dy="1"/>
<feGaussianBlur stdDeviation="0.25"/>
<feComposite in2="hardAlpha" operator="arithmetic" k2="-1" k3="1"/>
<feColorMatrix type="matrix" values="0 0 0 0 1 0 0 0 0 1 0 0 0 0 1 0 0 0 0.86 0"/>
<feBlend mode="normal" in2="shape" result="effect2_innerShadow_1612_854"/>
<feColorMatrix in="SourceAlpha" type="matrix" values="0 0 0 0 0 0 0 0 0 0 0 0 0 0 0 0 0 0 127 0" result="hardAlpha"/>
<feOffset dy="-1"/>
<feGaussianBlur stdDeviation="0.25"/>
<feComposite in2="hardAlpha" operator="arithmetic" k2="-1" k3="1"/>
<feColorMatrix type="matrix" values="0 0 0 0 0 0 0 0 0 0 0 0 0 0 0 0 0 0 0.25 0"/>
<feBlend mode="normal" in2="effect2_innerShadow_1612_854" result="effect3_innerShadow_1612_854"/>
</filter>
<linearGradient id="paint0_linear_1612_854" x1="25" y1="73.5615" x2="25" y2="-5.10131e-06" gradientUnits="userSpaceOnUse">
<stop stop-color="white"/>
<stop offset="1" stop-color="#999999"/>
</linearGradient>
<linearGradient id="paint1_linear_1612_854" x1="25" y1="73.5615" x2="25" y2="-5.10131e-06" gradientUnits="userSpaceOnUse">
<stop stop-color="white"/>
<stop offset="1" stop-color="#999999"/>
</linearGradient>
</defs>
</svg>
