<svg width="50" height="70" viewBox="0 0 50 70" fill="none" xmlns="http://www.w3.org/2000/svg">
<g filter="url(#filter0_dii_1612_1688)">
<path d="M19.9913 0C18.4227 0 17.0473 1.10781 16.6319 2.70616L1.12643 62.3435C0.517257 64.6868 2.18607 67 4.48599 67H45.514C47.8139 67 49.4827 64.6868 48.8736 62.3435L42.1276 36.3969C41.6717 34.6434 39.3056 34.3512 38.4368 35.9412L28.6731 53.8106C28.3224 54.4524 27.6494 54.8517 26.918 54.8517H24.3033C23.5335 54.8517 22.9097 54.1923 22.9097 53.3791V7.73077C22.9097 6.91757 23.5335 6.25824 24.3033 6.25824H25.6969C26.4665 6.25824 27.0904 6.91757 27.0904 7.73077V34.5113C27.0904 36.5825 29.8524 37.2879 30.8455 35.4702L37.9468 22.4734C38.1909 22.0267 38.2554 21.5038 38.1273 21.0111L33.3681 2.70616C32.9527 1.10781 31.5773 0 30.0087 0H19.9913Z" fill="url(#paint0_linear_1612_1688)"/>
<path d="M47.7139 11.7802C47.2139 11.4752 46.5748 11.6562 46.2862 12.1845L24.3375 52.3547C24.0488 52.883 24.2201 53.5583 24.7201 53.8634C25.2199 54.1682 25.8592 53.9874 26.1478 53.4591L48.0965 13.2889C48.385 12.7606 48.2137 12.0853 47.7139 11.7802Z" fill="url(#paint1_linear_1612_1688)"/>
</g>
<defs>
<filter id="filter0_dii_1612_1688" x="0" y="-0.5" width="50" height="70.5" filterUnits="userSpaceOnUse" color-interpolation-filters="sRGB">
<feFlood flood-opacity="0" result="BackgroundImageFix"/>
<feColorMatrix in="SourceAlpha" type="matrix" values="0 0 0 0 0 0 0 0 0 0 0 0 0 0 0 0 0 0 127 0" result="hardAlpha"/>
<feOffset dy="2"/>
<feGaussianBlur stdDeviation="0.5"/>
<feComposite in2="hardAlpha" operator="out"/>
<feColorMatrix type="matrix" values="0 0 0 0 0 0 0 0 0 0 0 0 0 0 0 0 0 0 0.25 0"/>
<feBlend mode="normal" in2="BackgroundImageFix" result="effect1_dropShadow_1612_1688"/>
<feBlend mode="normal" in="SourceGraphic" in2="effect1_dropShadow_1612_1688" result="shape"/>
<feColorMatrix in="SourceAlpha" type="matrix" values="0 0 0 0 0 0 0 0 0 0 0 0 0 0 0 0 0 0 127 0" result="hardAlpha"/>
<feOffset dy="1"/>
<feGaussianBlur stdDeviation="0.25"/>
<feComposite in2="hardAlpha" operator="arithmetic" k2="-1" k3="1"/>
<feColorMatrix type="matrix" values="0 0 0 0 1 0 0 0 0 1 0 0 0 0 1 0 0 0 0.86 0"/>
<feBlend mode="normal" in2="shape" result="effect2_innerShadow_1612_1688"/>
<feColorMatrix in="SourceAlpha" type="matrix" values="0 0 0 0 0 0 0 0 0 0 0 0 0 0 0 0 0 0 127 0" result="hardAlpha"/>
<feOffset dy="-1"/>
<feGaussianBlur stdDeviation="0.25"/>
<feComposite in2="hardAlpha" operator="arithmetic" k2="-1" k3="1"/>
<feColorMatrix type="matrix" values="0 0 0 0 0 0 0 0 0 0 0 0 0 0 0 0 0 0 0.25 0"/>
<feBlend mode="normal" in2="effect2_innerShadow_1612_1688" result="effect3_innerShadow_1612_1688"/>
</filter>
<linearGradient id="paint0_linear_1612_1688" x1="25" y1="62.9394" x2="24.9999" y2="-0.00340184" gradientUnits="userSpaceOnUse">
<stop stop-color="#A1D632"/>
<stop offset="1" stop-color="#EBFEC1"/>
</linearGradient>
<linearGradient id="paint1_linear_1612_1688" x1="25" y1="62.9394" x2="24.9999" y2="-0.00340184" gradientUnits="userSpaceOnUse">
<stop stop-color="#A1D632"/>
<stop offset="1" stop-color="#EBFEC1"/>
</linearGradient>
</defs>
</svg>
