<svg width="156" height="156" viewBox="0 0 156 156" fill="none" xmlns="http://www.w3.org/2000/svg">
<path fill-rule="evenodd" clip-rule="evenodd" d="M78 156C121.078 156 156 121.078 156 78C156 34.9218 121.078 0 78 0C34.9218 0 0 34.9218 0 78C0 121.078 34.9218 156 78 156ZM78 146C115.555 146 146 115.555 146 78C146 40.4446 115.555 10 78 10C40.4446 10 10 40.4446 10 78C10 115.555 40.4446 146 78 146Z" fill="white" fill-opacity="0.3"/>
<path d="M58 68.4639C58 61.1049 58 57.4255 59.5439 55.3156C60.8903 53.4757 62.9578 52.2976 65.227 52.0773C67.8292 51.8247 70.9947 53.7005 77.3255 57.4521L93.4177 66.9883C99.5368 70.6144 102.596 72.4275 103.631 74.7793C104.533 76.8316 104.533 79.1684 103.631 81.2207C102.596 83.5725 99.5368 85.3856 93.4177 89.0117L77.3255 98.5479C70.9947 102.299 67.8292 104.175 65.227 103.923C62.9578 103.702 60.8903 102.524 59.5439 100.684C58 98.5745 58 94.8951 58 87.5361V68.4639Z" fill="white"/>
</svg>
