<svg width="156" height="156" viewBox="0 0 156 156" fill="none" xmlns="http://www.w3.org/2000/svg">
<path fill-rule="evenodd" clip-rule="evenodd" d="M78 156C121.078 156 156 121.078 156 78C156 34.9218 121.078 0 78 0C34.9218 0 0 34.9218 0 78C0 121.078 34.9218 156 78 156ZM78 146C115.555 146 146 115.555 146 78C146 40.4446 115.555 10 78 10C40.4446 10 10 40.4446 10 78C10 115.555 40.4446 146 78 146Z" fill="white" fill-opacity="0.3"/>
<rect x="54" y="46" width="18" height="64" rx="4" fill="white"/>
<rect x="84" y="46" width="18" height="64" rx="4" fill="white"/>
</svg>
