<svg width="433" height="33" viewBox="0 0 433 33" fill="none" xmlns="http://www.w3.org/2000/svg">
    <g filter="url(#filter0_ii_463_481)">
        <path
            d="M229.51 4.90954C228.088 4.90954 226.975 3.79455 226.975 2.46376C226.975 1.097 228.088 0 229.51 0C230.932 0 232.026 1.097 232.026 2.46376C232.026 3.79455 230.932 4.90954 229.51 4.90954Z"
            fill="#757575" />
        <path d="M227.231 26.7057V7.64305H231.771V26.7057H227.231Z" fill="#757575" />
        <path
            d="M274.785 27.1553C267.218 27.1553 262.44 22.012 262.44 13.7215V13.7035C262.44 5.41308 267.236 0.305722 274.785 0.305722C280.838 0.305722 285.287 4.02834 285.98 9.31553L285.998 9.49537H281.385L281.294 9.15368C280.528 6.18638 278.213 4.33406 274.785 4.33406C270.19 4.33406 267.254 7.94877 267.254 13.7035V13.7215C267.254 19.4943 270.208 23.127 274.785 23.127C278.14 23.127 280.492 21.3466 281.349 18.1455L281.404 17.9657H286.017L285.98 18.1455C285.306 23.4687 280.838 27.1553 274.785 27.1553Z"
            fill="#757575" />
        <path fill-rule="evenodd" clip-rule="evenodd"
            d="M288.332 17.1744C288.332 23.3428 291.997 27.0834 297.686 27.0834C303.357 27.0834 307.04 23.3608 307.04 17.1744V17.1384C307.04 10.988 303.302 7.24741 297.668 7.24741C292.052 7.24741 288.332 11.024 288.332 17.1384V17.1744ZM302.409 17.1744C302.409 21.1668 300.567 23.4687 297.705 23.4687C294.805 23.4687 292.964 21.1847 292.964 17.1744V17.1384C292.964 13.182 294.842 10.8801 297.668 10.8801C300.549 10.8801 302.409 13.164 302.409 17.1384V17.1744Z"
            fill="#757575" />
        <path
            d="M314.498 26.7057H309.958V7.64305H314.498V10.7003H314.589C315.41 8.61417 317.397 7.24741 319.95 7.24741C322.649 7.24741 324.6 8.65014 325.311 11.0959H325.42C326.35 8.72207 328.647 7.24741 331.437 7.24741C335.248 7.24741 337.746 9.80109 337.746 13.6136V26.7057H333.206V14.7286C333.206 12.3728 331.966 11.024 329.742 11.024C327.553 11.024 326.058 12.6245 326.058 14.9264V26.7057H321.646V14.4948C321.646 12.3548 320.333 11.024 318.218 11.024C316.03 11.024 314.498 12.7144 314.498 15.0343V26.7057Z"
            fill="#757575" />
        <path fill-rule="evenodd" clip-rule="evenodd"
            d="M341.393 7.64305V33H345.933V23.4866H346.024C347.118 25.7166 349.325 27.0834 352.078 27.0834C356.928 27.0834 360.028 23.3068 360.028 17.1924V17.1744C360.028 11.024 356.928 7.24741 352.023 7.24741C349.252 7.24741 347.137 8.65014 346.024 10.9341H345.933V7.64305H341.393ZM355.397 17.1924C355.397 20.951 353.573 23.3068 350.674 23.3068C347.866 23.3068 345.897 20.915 345.897 17.1924V17.1744C345.897 13.4338 347.866 11.024 350.674 11.024C353.573 11.024 355.397 13.3619 355.397 17.1744V17.1924Z"
            fill="#757575" />
        <path fill-rule="evenodd" clip-rule="evenodd"
            d="M371.497 27.0834C365.808 27.0834 362.143 23.3428 362.143 17.1744V17.1384C362.143 11.024 365.863 7.24741 371.479 7.24741C377.113 7.24741 380.851 10.988 380.851 17.1384V17.1744C380.851 23.3608 377.168 27.0834 371.497 27.0834ZM371.515 23.4687C374.378 23.4687 376.22 21.1668 376.22 17.1744V17.1384C376.22 13.164 374.36 10.8801 371.479 10.8801C368.653 10.8801 366.775 13.182 366.775 17.1384V17.1744C366.775 21.1847 368.616 23.4687 371.515 23.4687Z"
            fill="#757575" />
        <path
            d="M382.948 21.1668C383.349 24.7095 386.248 27.0834 391.317 27.0834C396.058 27.0834 399.431 24.6736 399.431 21.0768V21.0589C399.431 18.2894 397.882 16.7428 393.888 15.8616L390.661 15.1602C388.655 14.7106 387.908 13.9913 387.908 12.8943V12.8763C387.908 11.4736 389.166 10.5564 391.171 10.5564C393.287 10.5564 394.526 11.6714 394.727 13.2L394.745 13.3439H398.976L398.957 13.146C398.793 9.85504 395.985 7.24741 391.171 7.24741C386.504 7.24741 383.422 9.60327 383.422 13.0921V13.1101C383.422 15.9335 385.282 17.7139 388.983 18.5232L392.193 19.2245C394.198 19.6741 394.873 20.3215 394.873 21.4725V21.4905C394.873 22.8932 393.542 23.7744 391.336 23.7744C389.038 23.7744 387.78 22.8033 387.434 21.1668L387.397 21.0049H382.93L382.948 21.1668Z"
            fill="#757575" />
        <path fill-rule="evenodd" clip-rule="evenodd"
            d="M410.828 27.0834C405.029 27.0834 401.528 23.2888 401.528 17.2283V17.2104C401.528 11.2038 405.084 7.24741 410.609 7.24741C416.134 7.24741 419.562 11.0779 419.562 16.8327V18.2714H406.032C406.105 21.6163 407.965 23.5945 410.919 23.5945C413.18 23.5945 414.657 22.4076 415.094 21.1308L415.131 21.0049H419.379L419.325 21.2027C418.723 24.1341 415.878 27.0834 410.828 27.0834ZM410.663 10.7542C408.257 10.7542 406.451 12.3548 406.087 15.2861H415.149C414.821 12.2648 413.07 10.7542 410.663 10.7542Z"
            fill="#757575" />
        <path
            d="M422.497 7.64305H427.038V10.9341H427.129C427.73 8.63215 429.335 7.24741 431.56 7.24741C432.125 7.24741 432.654 7.33733 433 7.42725V11.4736C432.617 11.3297 431.924 11.2218 431.158 11.2218C428.587 11.2218 427.038 12.8223 427.038 15.6458V26.7057H422.497V7.64305Z"
            fill="#757575" />
        <path
            d="M234.834 17.1564C234.834 23.2708 238.426 27.0834 244.17 27.0834C249.057 27.0834 252.32 24.0621 252.667 20.0877L252.685 19.9619H248.4L248.364 20.1237C247.944 22.1199 246.486 23.4687 244.188 23.4687C241.325 23.4687 239.466 21.1668 239.466 17.1924V17.1744C239.466 13.2719 241.307 10.8801 244.17 10.8801C246.577 10.8801 247.963 12.3728 248.345 14.2251L248.382 14.3869H252.667L252.649 14.2431C252.375 10.4305 249.202 7.24741 244.115 7.24741C238.481 7.24741 234.834 11.0599 234.834 17.1384V17.1564Z"
            fill="#757575" />
        <path
            d="M207.72 21.1668C208.122 24.7095 211.021 27.0834 216.09 27.0834C220.831 27.0834 224.204 24.6736 224.204 21.0768V21.0589C224.204 18.2894 222.654 16.7428 218.661 15.8616L215.433 15.1602C213.428 14.7106 212.68 13.9913 212.68 12.8943V12.8763C212.68 11.4736 213.938 10.5564 215.944 10.5564C218.059 10.5564 219.299 11.6714 219.499 13.2L219.518 13.3439H223.748L223.73 13.146C223.566 9.85504 220.758 7.24741 215.944 7.24741C211.276 7.24741 208.194 9.60327 208.194 13.0921V13.1101C208.194 15.9335 210.054 17.7139 213.756 18.5232L216.965 19.2245C218.971 19.6741 219.645 20.3215 219.645 21.4725V21.4905C219.645 22.8932 218.314 23.7744 216.108 23.7744C213.811 23.7744 212.552 22.8033 212.206 21.1668L212.169 21.0049H207.702L207.72 21.1668Z"
            fill="#757575" />
        <path
            d="M194.264 27.0834C190.015 27.0834 187.59 24.3858 187.59 19.9619V7.64305H192.13V19.0807C192.13 21.7782 193.407 23.3068 195.996 23.3068C198.603 23.3068 200.263 21.4545 200.263 18.685V7.64305H204.803V26.7057H200.263V23.7204H200.172C199.169 25.7526 197.181 27.0834 194.264 27.0834Z"
            fill="#757575" />
        <path
            d="M156.374 0.755313V26.7057H160.622V8.2545H160.75L168.335 26.7057H171.526L179.111 8.2545H179.257V26.7057H183.488V0.755313H178.054L169.994 20.5733H169.867L161.807 0.755313H156.374Z"
            fill="#757575" />
        <path d="M139.562 26.7057V0.755313H144.266V26.7057H139.562Z" fill="#757575" />
        <path fill-rule="evenodd" clip-rule="evenodd"
            d="M122.058 0.755313L112.649 26.7057H117.572L119.797 19.9978H129.588L131.813 26.7057H136.754L127.345 0.755313H122.058ZM120.982 16.4191L124.647 5.37711H124.756L128.403 16.4191H120.982Z"
            fill="#757575" />
        <path
            d="M89.6013 26.7057L80.4844 0.755313H85.6081L92.2817 21.7602H92.3728L99.0647 0.755313H104.188L95.0532 26.7057H89.6013Z"
            fill="#757575" />
        <path
            d="M58.6402 0.755313V26.7057H63.3445V18.3433L65.9337 15.3041L74.1207 26.7057H79.8462L69.3252 12.2109L79.0439 0.755313H73.6649L63.4721 12.9302H63.3445V0.755313H58.6402Z"
            fill="#757575" />
        <path
            d="M28.6819 26.7057L21.6254 0.755313H26.5121L31.0888 20.3395H31.1799L36.4495 0.755313H40.7163L45.9859 20.3395H46.077L50.6537 0.755313H55.5404L48.4839 26.7057H43.9437L38.6376 8.09264H38.5282L33.2221 26.7057H28.6819Z"
            fill="#757575" />
        <path fill-rule="evenodd" clip-rule="evenodd"
            d="M0 0.755313V26.7057H4.70434V16.9946H9.79159L14.97 26.7057H20.3308L14.5871 16.2932C17.6504 15.1962 19.5467 12.3728 19.5467 8.88392V8.84796C19.5467 3.83052 16.1188 0.755313 10.5027 0.755313H0ZM10.0104 13.3259H4.70434V4.5139H9.91923C12.8731 4.5139 14.733 6.16839 14.733 8.88392V8.91989C14.733 11.7074 12.9825 13.3259 10.0104 13.3259Z"
            fill="#757575" />
    </g>
    <defs>
        <filter id="filter0_ii_463_481" x="0" y="-0.591133" width="433" height="34.1823" filterUnits="userSpaceOnUse"
            color-interpolation-filters="sRGB">
            <feFlood flood-opacity="0" result="BackgroundImageFix" />
            <feBlend mode="normal" in="SourceGraphic" in2="BackgroundImageFix" result="shape" />
            <feColorMatrix in="SourceAlpha" type="matrix" values="0 0 0 0 0 0 0 0 0 0 0 0 0 0 0 0 0 0 127 0"
                result="hardAlpha" />
            <feOffset dy="-1.18227" />
            <feGaussianBlur stdDeviation="0.295566" />
            <feComposite in2="hardAlpha" operator="arithmetic" k2="-1" k3="1" />
            <feColorMatrix type="matrix" values="0 0 0 0 1 0 0 0 0 1 0 0 0 0 1 0 0 0 0.4 0" />
            <feBlend mode="normal" in2="shape" result="effect1_innerShadow_463_481" />
            <feColorMatrix in="SourceAlpha" type="matrix" values="0 0 0 0 0 0 0 0 0 0 0 0 0 0 0 0 0 0 127 0"
                result="hardAlpha" />
            <feOffset dy="1.18227" />
            <feGaussianBlur stdDeviation="0.295566" />
            <feComposite in2="hardAlpha" operator="arithmetic" k2="-1" k3="1" />
            <feColorMatrix type="matrix" values="0 0 0 0 0 0 0 0 0 0 0 0 0 0 0 0 0 0 0.5 0" />
            <feBlend mode="normal" in2="effect1_innerShadow_463_481" result="effect2_innerShadow_463_481" />
        </filter>
    </defs>
</svg>